<svg width="100" height="100" viewBox="0 0 100 100" xmlns="http://www.w3.org/2000/svg" xmlns:xlink="http://www.w3.org/1999/xlink"><title>Path</title><defs><linearGradient x1="50%" y1="0%" x2="50%" y2="100%" id="linearGradient-1"><stop stop-color="#7DA3D7" offset="0%"/><stop stop-color="#8CCD9B" offset="100%"/></linearGradient><path d="M81.172 38l-5.408-24.335C74.088 6.125 67.13 0 60.227 0 53.09 0 53.511 11.364 50 11.364S47.008 0 38.636 0c-3.673 0 0 0 0 0-5.091 0-12.723 6.118-14.4 13.665L18.828 38H1.491C.665 38 0 38.672 0 39.5c0 .834.668 1.5 1.491 1.5H98.51c.826 0 1.491-.672 1.491-1.5 0-.834-.668-1.5-1.491-1.5H81.172zm-59.228 0h56.128l-5.237-23.684C71.453 8.094 65.663 3 60.227 3c-1.51 0-2.491 1.025-3.719 3.87-.211.49-.926 2.26-1.062 2.581-1.387 3.28-2.655 4.913-5.446 4.913-2.605 0-3.906-1.515-5.225-4.37-.156-.338-1.062-2.434-1.342-3.02C42.073 4.123 40.826 3 38.636 3c-4.02 0-10.187 5.538-11.471 11.316L21.945 38zm59.874 6v23.537c0 6.632-3.8 15.808-8.722 20.254 0 0-10.299 12.209-23.096 12.209S26.886 87.777 26.886 87.777c-4.807-4.546-8.704-13.606-8.704-20.24V44h3v23.537c0 5.81 3.557 14.08 7.766 18.06l.122.116.109.129c.054.064.184.211.385.43.35.381.763.81 1.236 1.274a42.066 42.066 0 0 0 4.615 3.92C40.17 94.945 45.135 97 50 97c4.866 0 9.827-2.054 14.577-5.526a41.958 41.958 0 0 0 4.608-3.915c.472-.464.885-.892 1.234-1.272.201-.219.33-.366.384-.43l.131-.155.151-.137c4.195-3.79 7.733-12.106 7.733-18.028V44h3zm-25.01 13.656c0 7.344-9.408 7.056-9.408 14.16 0 .624.096 1.296.24 2.064l2.256-.096c-.096-.576-.192-1.104-.192-1.584 0-6.528 9.744-6.144 9.744-15.072 0-4.416-3.408-8.16-9.408-8.16-3.936 0-7.392 2.016-9.12 4.8l1.536 1.584c1.824-2.496 4.368-3.888 7.392-3.888 4.08 0 6.96 2.688 6.96 6.192zm-9.984 23.52c0 1.008.72 1.92 1.872 1.92 1.008 0 1.776-.912 1.776-1.92 0-.864-.768-1.728-1.776-1.728-1.152 0-1.872.864-1.872 1.728z" id="path-2"/></defs><g id="Page-1" fill="none" fill-rule="evenodd"><g id="main4" transform="translate(-220 -1360)"><g id="Group" transform="translate(100 1270)"><g transform="translate(120 90)" id="Group-Copy"><g id="Path"><use xlink:href="#path-2"/><use fill="url(#linearGradient-1)" xlink:href="#path-2"/></g></g></g></g></g></svg>