<svg width="95" height="95" viewBox="0 0 95 95" xmlns="http://www.w3.org/2000/svg" xmlns:xlink="http://www.w3.org/1999/xlink"><title>Path</title><defs><linearGradient x1="50%" y1="0%" x2="50%" y2="100%" id="linearGradient-1"><stop stop-color="#7DA3D7" offset="0%"/><stop stop-color="#8CCD9B" offset="100%"/></linearGradient><path d="M47.495 0C21.262.015 0 21.31 0 47.578 0 64.64 8.97 79.603 22.445 88h-8.952c-.83 0-1.493.672-1.493 1.5 0 .834.668 1.5 1.493 1.5h12.014c.413 0 .786-.167 1.058-.44.27-.27.435-.642.435-1.053V77.493c0-.83-.672-1.493-1.5-1.493-.834 0-1.5.668-1.5 1.493v7.973C11.374 77.592 2.97 63.568 2.97 47.578c0-24.535 19.786-44.443 44.254-44.603a1.508 1.508 0 0 0 .554 0l.245.001v-.07a1.5 1.5 0 0 0 0-2.812V.003A48.45 48.45 0 0 0 47.495 0zm.01 95C73.738 94.985 95 73.69 95 47.422 95 30.36 86.03 15.397 72.555 7h8.952C82.337 7 83 6.328 83 5.5c0-.834-.668-1.5-1.493-1.5H69.493c-.413 0-.786.167-1.058.44-.27.27-.435.642-.435 1.053v12.014c0 .83.672 1.493 1.5 1.493.834 0 1.5-.668 1.5-1.493V9.534c12.626 7.874 21.03 21.898 21.03 37.888 0 24.535-19.786 44.443-44.254 44.603a1.508 1.508 0 0 0-.554 0l-.245-.001v.07a1.5 1.5 0 0 0 0 2.812v.091a48.453 48.453 0 0 0 .528.003zM47.5 69C59.374 69 69 59.374 69 47.5S59.374 26 47.5 26 26 35.626 26 47.5 35.626 69 47.5 69zm3.82-17.296c0 1.704-1.416 2.616-3.168 2.616-1.416 0-3.168-.696-4.152-1.992l-1.176 1.392c.72 1.368 2.616 2.256 4.464 2.472V58.4h1.92v-2.256c2.496-.36 4.272-2.04 4.272-4.464 0-5.736-8.208-4.176-8.208-8.328 0-1.488 1.128-2.472 3.144-2.472 1.464 0 2.52.48 3.408 1.368l1.104-1.536c-.816-.888-2.16-1.512-3.72-1.704V37.04h-1.92v1.992c-2.616.384-4.176 2.16-4.176 4.32 0 5.568 8.208 4.248 8.208 8.352z" id="path-2"/></defs><g id="Page-1" fill="none" fill-rule="evenodd"><g id="main4" transform="translate(-632 -1365)"><g id="Group" transform="translate(100 1270)"><g id="Shape-+-Path" transform="translate(532 95)"><g id="Path"><use xlink:href="#path-2"/><use fill="url(#linearGradient-1)" xlink:href="#path-2"/></g></g></g></g></g></svg>