<svg width="80" height="100" viewBox="0 0 80 100" xmlns="http://www.w3.org/2000/svg" xmlns:xlink="http://www.w3.org/1999/xlink"><title>Shape</title><defs><linearGradient x1="50%" y1="0%" x2="50%" y2="100%" id="linearGradient-1"><stop stop-color="#7DA3D7" offset="0%"/><stop stop-color="#8CCD9B" offset="100%"/></linearGradient><path d="M3 47.01v46.98A3.002 3.002 0 0 0 5.997 97h68.006A3.003 3.003 0 0 0 77 93.99V47.01A3.002 3.002 0 0 0 74.003 44H5.997A3.003 3.003 0 0 0 3 47.01zm-3 0C0 43.69 2.685 41 5.997 41h68.006A6.002 6.002 0 0 1 80 47.01v46.98c0 3.32-2.685 6.01-5.997 6.01H5.997A6.002 6.002 0 0 1 0 93.99V47.01zM9 52a2 2 0 1 0 0-4 2 2 0 0 0 0 4zm62 0a2 2 0 1 0 0-4 2 2 0 0 0 0 4zM9 93a2 2 0 1 0 0-4 2 2 0 0 0 0 4zm62 0a2 2 0 1 0 0-4 2 2 0 0 0 0 4zM7.06 31C8.093 13.706 22.446 0 40 0s31.907 13.706 32.94 31h-3.006C68.905 15.364 55.896 3 40 3S11.095 15.364 10.066 31H7.06zM70 31h3v10h-3V31zM7 31h3v10H7V31zm8 0C16.022 18.128 26.825 8 40 8s23.978 10.128 25 23h-3.02C60.966 19.787 51.512 11 40 11s-20.966 8.787-21.98 20H15zm0 0h3v10h-3V31zm47 0h3v10h-3V31zM25.315 76.735c0 2.485-2.24 3.815-4.795 3.815-2.065 0-4.62-1.015-6.055-2.905l-1.715 2.03c1.225 2.31 4.725 3.675 7.735 3.675 4.445 0 7.98-2.625 7.98-6.65 0-8.365-11.97-6.09-11.97-12.145 0-2.17 1.68-3.605 4.41-3.605 2.135 0 3.675.7 4.97 1.995l1.61-2.24c-1.4-1.54-3.92-2.555-6.755-2.555-4.655 0-7.385 2.87-7.385 6.405 0 8.12 11.97 6.195 11.97 12.18zm19.215 0c0 2.485-2.24 3.815-4.795 3.815-2.065 0-4.62-1.015-6.055-2.905l-1.715 2.03c1.225 2.31 4.725 3.675 7.735 3.675 4.445 0 7.98-2.625 7.98-6.65 0-8.365-11.97-6.09-11.97-12.145 0-2.17 1.68-3.605 4.41-3.605 2.135 0 3.675.7 4.97 1.995l1.61-2.24c-1.4-1.54-3.92-2.555-6.755-2.555-4.655 0-7.385 2.87-7.385 6.405 0 8.12 11.97 6.195 11.97 12.18zM53.105 83h15.05v-2.8H56.08V58.5h-2.975V83z" id="path-2"/></defs><g id="Page-1" fill="none" fill-rule="evenodd"><g id="main4" transform="translate(-1050 -1360)"><g id="Group" transform="translate(100 1270)"><g id="Group-Copy-13" transform="translate(820 20)"><g id="Oval-9-+-Rectangle-46" transform="translate(130 70)"><g id="Shape"><use xlink:href="#path-2"/><use fill="url(#linearGradient-1)" xlink:href="#path-2"/></g></g></g></g></g></g></svg>